<svg xmlns="http://www.w3.org/2000/svg" viewBox="0 0 1400 900" role="img" aria-labelledby="title desc">
  <title id="title">Illustration héro AquaDrop</title>
  <desc id="desc">Un dégradé évoquant l'eau et les feuillages avec une capsule AquaDrop stylisée.</desc>
  <defs>
    <linearGradient id="bg" x1="0%" x2="100%" y1="0%" y2="100%">
      <stop offset="0%" stop-color="#0B3D2E" />
      <stop offset="50%" stop-color="#1F6F57" />
      <stop offset="100%" stop-color="#23B5D3" />
    </linearGradient>
    <linearGradient id="glow" x1="0%" x2="0%" y1="0%" y2="100%">
      <stop offset="0%" stop-color="#FFFFFF" stop-opacity="0.7" />
      <stop offset="100%" stop-color="#FFFFFF" stop-opacity="0" />
    </linearGradient>
  </defs>
  <rect width="1400" height="900" fill="url(#bg)" />
  <g opacity="0.4" transform="translate(700 450)">
    <ellipse rx="520" ry="320" fill="#ffffff" fill-opacity="0.07" />
    <ellipse rx="420" ry="260" fill="#ffffff" fill-opacity="0.05" />
    <ellipse rx="320" ry="200" fill="#ffffff" fill-opacity="0.05" />
  </g>
  <g transform="translate(700 450)">
    <circle r="200" fill="#F7F5F0" />
    <path d="M 0 -120 C 70 -120 120 -60 120 0 C 120 60 70 120 0 120 C -70 120 -120 60 -120 0 C -120 -60 -70 -120 0 -120 Z" fill="#0B3D2E" opacity="0.9" />
    <path d="M 0 -96 C 52 -96 96 -52 96 0 C 96 52 52 96 0 96 C -52 96 -96 52 -96 0 C -96 -52 -52 -96 0 -96 Z" fill="#23B5D3" opacity="0.85" />
    <path d="M 0 -60 L 40 20 C 46 32 40 46 28 52 L 0 64 L -28 52 C -40 46 -46 32 -40 20 Z" fill="#C6A15B" opacity="0.7" />
  </g>
  <rect width="1400" height="900" fill="url(#glow)" />
</svg>
