<svg xmlns="http://www.w3.org/2000/svg" viewBox="0 0 1200 630" role="img" aria-labelledby="title desc">
  <title id="title">AquaDrop – La douche éco-luxe, en pastille</title>
  <desc id="desc">Carte de partage pour AquaDrop avec logo et slogan.</desc>
  <defs>
    <linearGradient id="bg" x1="0%" x2="100%" y1="0%" y2="100%">
      <stop offset="0%" stop-color="#0B3D2E" />
      <stop offset="50%" stop-color="#1F6F57" />
      <stop offset="100%" stop-color="#0B3D2E" />
    </linearGradient>
    <linearGradient id="accent" x1="0%" x2="100%" y1="0%" y2="0%">
      <stop offset="0%" stop-color="#C6A15B" />
      <stop offset="100%" stop-color="#F7F5F0" />
    </linearGradient>
  </defs>
  <rect width="1200" height="630" rx="48" fill="url(#bg)" />
  <g transform="translate(600 315)">
    <circle cx="0" cy="0" r="220" fill="rgba(255,255,255,0.06)" stroke="#C6A15B" stroke-width="6" />
    <g transform="translate(0 -10)">
      <circle r="120" fill="#F7F5F0" />
      <path d="M 0 -72 C 44 -72 72 -36 72 0 C 72 36 44 72 0 72 C -44 72 -72 36 -72 0 C -72 -36 -44 -72 0 -72 Z" fill="#0B3D2E" opacity="0.92" />
      <path d="M 0 -52 C 32 -52 52 -24 52 0 C 52 24 32 52 0 52 C -32 52 -52 24 -52 0 C -52 -24 -32 -52 0 -52 Z" fill="#23B5D3" opacity="0.85" />
      <path d="M 0 -28 L 18 16 C 20 22 18 28 12 30 L 0 34 L -12 30 C -18 28 -20 22 -18 16 Z" fill="#C6A15B" opacity="0.75" />
    </g>
    <text x="0" y="170" font-family="'Fraunces', 'Times New Roman', serif" font-size="72" text-anchor="middle" fill="#F7F5F0">
      AquaDrop
    </text>
    <text x="0" y="220" font-family="'Inter', 'Helvetica Neue', sans-serif" font-size="28" text-anchor="middle" fill="#E4DFD2">
      La douche éco-luxe, en pastille
    </text>
  </g>
  <rect x="180" y="80" width="840" height="40" rx="20" fill="rgba(255,255,255,0.08)" />
  <rect x="260" y="512" width="680" height="6" rx="3" fill="url(#accent)" opacity="0.7" />
</svg>
